<?xml version="1.0" encoding="UTF-8" standalone="no"?>
<svg width="105px" height="29px" viewBox="0 0 105 29" version="1.1" xmlns="http://www.w3.org/2000/svg" xmlns:xlink="http://www.w3.org/1999/xlink">
    <defs>
        <polygon id="path-1" points="0 28.9740299 105 28.9740299 105 0 0 0"></polygon>
    </defs>
    <g id="Page-1" stroke="none" stroke-width="1" fill="none" fill-rule="evenodd">
        <g id="Artboard">
            <g id="dozr_logo">
                <mask id="mask-2" fill="white">
                    <use xlink:href="#path-1"></use>
                </mask>
                <g id="Clip-2"></g>
                <path d="M0,21.641791 L0,29 L15.2210625,29 C16.3174375,29 17.3403125,28.3775821 18.1286875,27.5980448 L21.4291875,24.249194 C22.217125,23.4696567 22.61525,22.9402985 22.61525,21.641791 L0,21.641791" id="Fill-1" fill="#AA925E" mask="url(#mask-2)"></path>
                <path d="M18.1015625,1.07256716 C17.3131875,0.293462687 16.3174375,0 15.2210625,0 L0,0 L0,7.35820896 L22.6874375,7.35820896 C22.6874375,6.05970149 22.217125,5.30786567 21.42875,4.52832836 L18.1015625,1.07256716" id="Fill-3" fill="#AA925E" mask="url(#mask-2)"></path>
                <path d="M44.1875,20.3129851 L42.574,21.641791 L34.6285625,21.641791 L33.25,20.3129851 L33.25,8.02867164 L34.628125,7.35820896 L42.5744375,7.35820896 L44.1875,8.02867164 L44.1875,20.3129851 L44.1875,20.3129851 Z M46.690875,1.073 C45.9029375,0.293462687 44.9071875,0 43.8108125,0 L33.39175,0 C32.295375,0 31.2755625,0.293462687 30.4880625,1.073 L27.127625,4.22274627 C26.3396875,5.00271642 25.8125,5.95755224 25.8125,7.04223881 L25.8125,21.2994179 C25.8125,22.3841045 26.3396875,23.3696716 27.127625,24.1487761 L30.47975,27.5976119 C31.2676875,28.3775821 32.295375,29 33.39175,29 L43.8108125,29 C44.9071875,29 45.910375,28.3775821 46.697875,27.5980448 L49.9734375,24.2543881 C50.761375,23.4748507 51.1875,22.3841045 51.1875,21.2994179 L51.1875,7.04223881 C51.1875,5.95755224 50.761375,5.03128358 49.9734375,4.2521791 L46.690875,1.073 L46.690875,1.073 Z" id="Fill-4" fill="#AA925E" mask="url(#mask-2)"></path>
                <polyline id="Fill-5" fill="#AA925E" mask="url(#mask-2)" points="52.9375 7.35820896 65.9211875 7.35820896 52.9375 23.9055224 52.9375 29 75.6875 29 75.6875 21.641791 63.9463125 21.641791 75.6875 4.43613433 75.6875 0 52.9375 0 52.9375 7.35820896"></polyline>
                <path d="M94.5,10.5975522 L93.8905625,11.6865672 L86.625,11.6865672 L86.625,7.35820896 L93.8905625,7.35820896 L94.5,7.35691045 L94.5,10.5975522 L94.5,10.5975522 Z M96.565875,18.1509701 C97.07775,17.9574925 97.535375,17.550194 97.9444375,17.1450597 L100.448688,14.4857164 C101.248,13.6949254 101.5,12.6838209 101.5,11.5839851 L101.5,6.37047761 C101.5,5.27064179 101.248,4.34091045 100.448688,3.5501194 L97.913375,1.0331791 C97.1516875,0.27961194 96.236875,0 95.16675,0 L78.75,0 L78.75,29 L86.625,29 L86.625,18.1791045 L87.808875,18.1791045 L95.951625,29 L105,29 L96.565875,18.1509701 L96.565875,18.1509701 Z" id="Fill-6" fill="#AA925E" mask="url(#mask-2)"></path>
                <polyline id="Fill-8" fill="#AA925E" mask="url(#mask-2)" points="0 9.52238806 0 20.4198955 15.3531875 9.52238806 0 9.52238806"></polyline>
                <polyline id="Fill-9" fill="#AA925E" mask="url(#mask-2)" points="22.75 19.4776119 22.75 8.903 7.3605 19.4776119 22.75 19.4776119"></polyline>
            </g>
        </g>
    </g>
</svg>
